<svg width="20" height="44" viewBox="0 0 20 44" fill="none" xmlns="http://www.w3.org/2000/svg">
<mask id="mask0_202_21" style="mask-type:alpha" maskUnits="userSpaceOnUse" x="0" y="12" width="24" height="24">
<rect y="12" width="24" height="24" fill="#D9D9D9"/>
</mask>
<g mask="url(#mask0_202_21)">
<path d="M9.16699 26.167H10.8337V22.8337H14.167V21.167H10.8337V17.8337H9.16699V21.167H5.83366V22.8337H9.16699V26.167ZM10.0003 30.3337C8.84755 30.3337 7.76421 30.1149 6.75032 29.6774C5.73644 29.2399 4.85449 28.6462 4.10449 27.8962C3.35449 27.1462 2.76074 26.2642 2.32324 25.2503C1.88574 24.2364 1.66699 23.1531 1.66699 22.0003C1.66699 20.8475 1.88574 19.7642 2.32324 18.7503C2.76074 17.7364 3.35449 16.8545 4.10449 16.1045C4.85449 15.3545 5.73644 14.7607 6.75032 14.3232C7.76421 13.8857 8.84755 13.667 10.0003 13.667C11.1531 13.667 12.2364 13.8857 13.2503 14.3232C14.2642 14.7607 15.1462 15.3545 15.8962 16.1045C16.6462 16.8545 17.2399 17.7364 17.6774 18.7503C18.1149 19.7642 18.3337 20.8475 18.3337 22.0003C18.3337 23.1531 18.1149 24.2364 17.6774 25.2503C17.2399 26.2642 16.6462 27.1462 15.8962 27.8962C15.1462 28.6462 14.2642 29.2399 13.2503 29.6774C12.2364 30.1149 11.1531 30.3337 10.0003 30.3337ZM10.0003 28.667C11.8614 28.667 13.4378 28.0212 14.7295 26.7295C16.0212 25.4378 16.667 23.8614 16.667 22.0003C16.667 20.1392 16.0212 18.5628 14.7295 17.2712C13.4378 15.9795 11.8614 15.3337 10.0003 15.3337C8.13921 15.3337 6.56283 15.9795 5.27116 17.2712C3.97949 18.5628 3.33366 20.1392 3.33366 22.0003C3.33366 23.8614 3.97949 25.4378 5.27116 26.7295C6.56283 28.0212 8.13921 28.667 10.0003 28.667Z" fill="#DEE4EA"/>
</g>
</svg>
