<svg width="21" height="20" viewBox="0 0 21 20" fill="none" xmlns="http://www.w3.org/2000/svg">
<mask id="mask0_202_649" style="mask-type:alpha" maskUnits="userSpaceOnUse" x="0" y="0" width="26" height="25">
<rect x="0.426758" width="24.5833" height="24.5833" fill="#D9D9D9"/>
</mask>
<g mask="url(#mask0_202_649)">
<path d="M14.3018 10.8337L9.59343 6.12533L14.3018 1.41699L19.0101 6.12533L14.3018 10.8337ZM2.92676 9.16699V2.50033H9.59343V9.16699H2.92676ZM11.2601 17.5003V10.8337H17.9268V17.5003H11.2601ZM2.92676 17.5003V10.8337H9.59343V17.5003H2.92676ZM4.59342 7.50033H7.92676V4.16699H4.59342V7.50033ZM14.3226 8.50033L16.6768 6.14616L14.3226 3.79199L11.9684 6.14616L14.3226 8.50033ZM12.9268 15.8337H16.2601V12.5003H12.9268V15.8337ZM4.59342 15.8337H7.92676V12.5003H4.59342V15.8337Z" fill="#22272B"/>
</g>
</svg>
