<svg width="18" height="19" viewBox="0 0 18 19" fill="none" xmlns="http://www.w3.org/2000/svg">
<mask id="mask0_397_56" style="mask-type:alpha" maskUnits="userSpaceOnUse" x="0" y="0" width="18" height="19">
<rect y="0.5" width="18" height="18" fill="#D9D9D9"/>
</mask>
<g mask="url(#mask0_397_56)">
<path d="M1.50244 18.4996V16.2496H16.5024V18.4996H1.50244ZM4.50244 12.8097H5.42982L11.6548 6.59618L11.1833 6.11749L10.716 5.65736L4.50244 11.8824V12.8097ZM3.37744 13.9347V11.4035L11.7848 3.0078C11.8934 2.89918 12.0167 2.81699 12.1547 2.76124C12.2926 2.70549 12.4361 2.67761 12.5852 2.67761C12.7344 2.67761 12.8789 2.70549 13.0187 2.76124C13.1584 2.81699 13.2865 2.90305 13.4029 3.01943L14.3044 3.93236C14.4208 4.04099 14.5049 4.16543 14.5568 4.30568C14.6086 4.4458 14.6346 4.59068 14.6346 4.7403C14.6346 4.88055 14.6083 5.01999 14.5556 5.15861C14.503 5.29736 14.4193 5.42418 14.3044 5.53905L5.90869 13.9347H3.37744ZM11.6548 6.59618L11.1833 6.11749L10.716 5.65736L11.6548 6.59618Z" fill="#738496"/>
</g>
</svg>
