<svg width="14" height="15" viewBox="0 0 14 15" fill="none" xmlns="http://www.w3.org/2000/svg">
<mask id="mask0_57_1310" style="mask-type:alpha" maskUnits="userSpaceOnUse" x="0" y="0" width="14" height="15">
<rect y="0.5" width="14" height="14" fill="#D9D9D9"/>
</mask>
<g mask="url(#mask0_57_1310)">
<path d="M6.41699 10.417H7.58366V6.91699H6.41699V10.417ZM7.00033 5.75033C7.1656 5.75033 7.30415 5.69442 7.41595 5.58262C7.52776 5.47081 7.58366 5.33227 7.58366 5.16699C7.58366 5.00171 7.52776 4.86317 7.41595 4.75137C7.30415 4.63956 7.1656 4.58366 7.00033 4.58366C6.83505 4.58366 6.69651 4.63956 6.5847 4.75137C6.4729 4.86317 6.41699 5.00171 6.41699 5.16699C6.41699 5.33227 6.4729 5.47081 6.5847 5.58262C6.69651 5.69442 6.83505 5.75033 7.00033 5.75033ZM7.00033 13.3337C6.19338 13.3337 5.43505 13.1805 4.72533 12.8743C4.0156 12.568 3.39824 12.1524 2.87324 11.6274C2.34824 11.1024 1.93262 10.485 1.62637 9.77533C1.32012 9.0656 1.16699 8.30727 1.16699 7.50033C1.16699 6.69338 1.32012 5.93505 1.62637 5.22533C1.93262 4.5156 2.34824 3.89824 2.87324 3.37324C3.39824 2.84824 4.0156 2.43262 4.72533 2.12637C5.43505 1.82012 6.19338 1.66699 7.00033 1.66699C7.80727 1.66699 8.5656 1.82012 9.27533 2.12637C9.98505 2.43262 10.6024 2.84824 11.1274 3.37324C11.6524 3.89824 12.068 4.5156 12.3743 5.22533C12.6805 5.93505 12.8337 6.69338 12.8337 7.50033C12.8337 8.30727 12.6805 9.0656 12.3743 9.77533C12.068 10.485 11.6524 11.1024 11.1274 11.6274C10.6024 12.1524 9.98505 12.568 9.27533 12.8743C8.5656 13.1805 7.80727 13.3337 7.00033 13.3337ZM7.00033 12.167C8.3031 12.167 9.40658 11.7149 10.3107 10.8107C11.2149 9.90658 11.667 8.8031 11.667 7.50033C11.667 6.19755 11.2149 5.09408 10.3107 4.18991C9.40658 3.28574 8.3031 2.83366 7.00033 2.83366C5.69755 2.83366 4.59408 3.28574 3.68991 4.18991C2.78574 5.09408 2.33366 6.19755 2.33366 7.50033C2.33366 8.8031 2.78574 9.90658 3.68991 10.8107C4.59408 11.7149 5.69755 12.167 7.00033 12.167Z" fill="#738496"/>
</g>
</svg>
