<svg width="12" height="12" viewBox="0 0 12 12" fill="none" xmlns="http://www.w3.org/2000/svg">
<path d="M10.2958 11.5312L6.42396 7.65937C6.11667 7.90521 5.76328 8.09983 5.3638 8.24323C4.96432 8.38663 4.53924 8.45833 4.08854 8.45833C2.97205 8.45833 2.02713 8.07166 1.25378 7.29831C0.480425 6.52496 0.09375 5.58003 0.09375 4.46354C0.09375 3.34705 0.480425 2.40213 1.25378 1.62878C2.02713 0.855425 2.97205 0.46875 4.08854 0.46875C5.20503 0.46875 6.14996 0.855425 6.92331 1.62878C7.69666 2.40213 8.08333 3.34705 8.08333 4.46354C8.08333 4.91424 8.01163 5.33932 7.86823 5.7388C7.72483 6.13828 7.53021 6.49167 7.28437 6.79896L11.1562 10.6708L10.2958 11.5312ZM4.08854 7.22917C4.85677 7.22917 5.50977 6.96029 6.04753 6.42253C6.58529 5.88477 6.85417 5.23177 6.85417 4.46354C6.85417 3.69531 6.58529 3.04232 6.04753 2.50456C5.50977 1.9668 4.85677 1.69792 4.08854 1.69792C3.32031 1.69792 2.66732 1.9668 2.12956 2.50456C1.5918 3.04232 1.32292 3.69531 1.32292 4.46354C1.32292 5.23177 1.5918 5.88477 2.12956 6.42253C2.66732 6.96029 3.32031 7.22917 4.08854 7.22917Z" fill="#DEE4EA"/>
</svg>
