<svg width="24" height="24" viewBox="0 0 24 24" fill="none" xmlns="http://www.w3.org/2000/svg">
<mask id="mask0_173_385" style="mask-type:alpha" maskUnits="userSpaceOnUse" x="0" y="0" width="24" height="24">
<rect width="24" height="24" fill="#D9D9D9"/>
</mask>
<g mask="url(#mask0_173_385)">
<path d="M19.75 22.6L10.35 13.15C9.56667 13.3333 8.8375 13.6083 8.1625 13.975C7.4875 14.3417 6.88333 14.8 6.35 15.35L4.25 13.2C4.78333 12.6667 5.35833 12.2 5.975 11.8C6.59167 11.4 7.25 11.05 7.95 10.75L5.7 8.5C5.01667 8.85 4.37917 9.2375 3.7875 9.6625C3.19583 10.0875 2.63333 10.5667 2.1 11.1L0 8.95C0.533333 8.41667 1.0875 7.9375 1.6625 7.5125C2.2375 7.0875 2.85 6.68333 3.5 6.3L1.4 4.2L2.8 2.8L21.2 21.2L19.75 22.6ZM12 21C11.3 21 10.7083 20.7542 10.225 20.2625C9.74167 19.7708 9.5 19.1833 9.5 18.5C9.5 17.8 9.74167 17.2083 10.225 16.725C10.7083 16.2417 11.3 16 12 16C12.7 16 13.2917 16.2417 13.775 16.725C14.2583 17.2083 14.5 17.8 14.5 18.5C14.5 19.1833 14.2583 19.7708 13.775 20.2625C13.2917 20.7542 12.7 21 12 21ZM17.9 15.05L12.85 10C14.2 10.1333 15.4625 10.475 16.6375 11.025C17.8125 11.575 18.85 12.3 19.75 13.2L17.9 15.05ZM21.9 11.1C20.6167 9.81667 19.1292 8.8125 17.4375 8.0875C15.7458 7.3625 13.9333 7 12 7C11.65 7 11.3125 7.0125 10.9875 7.0375C10.6625 7.0625 10.3333 7.1 10 7.15L7.45 4.6C8.18333 4.4 8.92917 4.25 9.6875 4.15C10.4458 4.05 11.2167 4 12 4C14.3667 4 16.575 4.44167 18.625 5.325C20.675 6.20833 22.4667 7.41667 24 8.95L21.9 11.1Z" fill="#434343"/>
</g>
</svg>
